<svg xmlns="http://www.w3.org/2000/svg" viewBox="0 0 1202.36 356.85"><defs><style>.cls-1{fill:#f2663f;}.cls-2{fill:#fff;}</style></defs><g id="Layer_2" data-name="Layer 2"><g id="Layer_1-2" data-name="Layer 1"><path class="cls-1" d="M270.79,39.92a46.53,46.53,0,0,1,65.83,0L455.36,158.65a46.55,46.55,0,0,1,0,65.83L383.81,296c16.34-55.31-22.7-99.59-26.82-104.08l-.36-.37h0l-85.83-85.83A46.52,46.52,0,0,1,270.79,39.92Z"/><path class="cls-1" d="M257.15,310.31a46.43,46.43,0,0,1,13.64-32.92l80.67-80.67.23.24c4.54,5,40.15,46.11,25.12,97L373,306.85l-36.37,36.37a46.56,46.56,0,0,1-79.47-32.91Z"/><path class="cls-1" d="M198.2,316.93a46.52,46.52,0,0,1-65.82,0L13.63,198.2a46.56,46.56,0,0,1,0-65.83L85.18,60.84c-16.33,55.31,22.7,99.59,26.83,104.08l.35.37h0l85.82,85.83A46.52,46.52,0,0,1,198.2,316.93Z"/><path class="cls-1" d="M211.84,46.54a46.46,46.46,0,0,1-13.63,32.92l-80.67,80.67-.24-.24c-4.54-5-40.14-46.11-25.11-97L96,50l36.38-36.37a46.55,46.55,0,0,1,79.46,32.91Z"/><path class="cls-1" d="M228.28,205.53l23.89,23.89,56.18-56.17,21.83,21.84-81.33,81.33L138.09,165.66l79.59-79.6,21.52,21.52L184.77,162l22.62,22.62,51.43-51.42,20.89,20.88Z"/><path class="cls-2" d="M539.63,126.7v19.75h46.42v18H518.84V73h65.77V90.74h-45v18.7h42.49V126.7Z"/><path class="cls-2" d="M630.63,164.49V73h19.75L682,117l10.33,14.9.52-.26q-1.56-7.45-1.57-23.8V73h20.92v91.53H692.48l-31.77-44.06q-7.59-10.86-10.2-14.78l-.53.26q1.57,6.81,1.57,23.67v34.91Z"/><path class="cls-2" d="M782.57,164.49H761.13V73h21.44Z"/><path class="cls-2" d="M870.18,110.23h42.75v40.92a46,46,0,0,1-16.86,11.44,58.87,58.87,0,0,1-22.1,4q-14.52,0-25.44-5.82a40.46,40.46,0,0,1-16.8-16.54q-5.88-10.71-5.88-25.1A49.64,49.64,0,0,1,832.13,94a44.15,44.15,0,0,1,17.52-17.13,52.89,52.89,0,0,1,25.76-6.14A55.45,55.45,0,0,1,894.82,74a46.22,46.22,0,0,1,15,8.76L899.07,97.54a41.83,41.83,0,0,0-11.31-6.34,37.41,37.41,0,0,0-12.62-2q-13.2,0-20.72,7.78t-7.52,21.38a34.94,34.94,0,0,0,3.4,15.83A24.38,24.38,0,0,0,860,144.61a28.42,28.42,0,0,0,14.64,3.67q12.42,0,20.14-6.28V127.22H870.18Z"/><path class="cls-2" d="M1038.46,73h19.87v91.53h-21.18V123.82a159,159,0,0,1,.92-17.78l-.53-.26a112.93,112.93,0,0,1-9.54,15l-17.79,25.23h-4.7L987.86,121a122.25,122.25,0,0,1-9.68-15l-.52.26a163.33,163.33,0,0,1,1,17.79v40.53H957.52V73h20l30.6,43.67Z"/><path class="cls-2" d="M1198.11,164.49H1175l-7.06-16.74h-41.31l-6.94,16.74h-22.48L1136.39,73H1159Zm-64.73-34.65h27.86L1152.87,107q-4.06-10.59-5.23-14.65h-.53q-.78,2.63-5.36,15.17Z"/><path class="cls-2" d="M549.37,197.49q14.11,0,24.65,5.56a39.28,39.28,0,0,1,16.28,15.82q5.75,10.26,5.75,24t-5.75,24.32a39.6,39.6,0,0,1-16.41,16.15Q563.22,289,549.11,289H512V197.49Zm.26,73q11.5,0,18.24-7.26t6.74-19.54q0-12.83-6.87-20.27T549,215.92H533.42v54.53Z"/><path class="cls-2" d="M660.77,289H639.33V197.49h21.44Z"/><path class="cls-2" d="M748.38,234.75h42.75v40.93a46.16,46.16,0,0,1-16.86,11.44,58.84,58.84,0,0,1-22.1,4q-14.52,0-25.43-5.82a40.4,40.4,0,0,1-16.8-16.54q-5.9-10.72-5.89-25.1a49.64,49.64,0,0,1,6.28-25.11,44.15,44.15,0,0,1,17.52-17.13q11.24-6.15,25.76-6.14A55.68,55.68,0,0,1,773,198.53a46.38,46.38,0,0,1,15,8.76l-10.73,14.78A41.27,41.27,0,0,0,766,215.73a37.35,37.35,0,0,0-12.61-2q-13.22,0-20.73,7.78t-7.52,21.38a34.87,34.87,0,0,0,3.4,15.82,24.41,24.41,0,0,0,9.68,10.46,28.51,28.51,0,0,0,14.64,3.66q12.42,0,20.14-6.27V251.75H748.38Z"/><path class="cls-2" d="M857.17,289H835.72V197.49h21.45Z"/><path class="cls-2" d="M897.44,197.49h76.75v18H946.34V289H925V215.53H897.44Z"/><path class="cls-2" d="M1096.71,289h-23.14l-7.07-16.74h-41.31L1018.26,289H995.77L1035,197.49h22.62ZM1032,254.37h27.86l-8.37-22.88q-4-10.61-5.23-14.65h-.53q-.78,2.61-5.36,15.17Z"/><path class="cls-2" d="M1156.73,197.49v73.09h45.63V289h-67.08V197.49Z"/></g></g></svg>