<svg xmlns="http://www.w3.org/2000/svg" viewBox="0 0 642.19 488.63"><defs><style>.cls-1{fill:#f2663f;}</style></defs><g id="Layer_2" data-name="Layer 2"><g id="Layer_1-2" data-name="Layer 1"><path class="cls-1" d="M370.79,54.66a63.74,63.74,0,0,1,90.14,0l162.6,162.58a63.76,63.76,0,0,1,0,90.14l-98,97.95C547.92,329.6,494.47,269,488.82,262.81c-.31-.34-.48-.5-.48-.5h0L370.79,144.78A63.72,63.72,0,0,1,370.79,54.66Z"/><path class="cls-1" d="M352.12,424.9a63.57,63.57,0,0,1,18.67-45.07L481.25,269.37l.32.32c6.22,6.82,55,63.14,34.39,132.8l-5.22,17.67L460.93,470A63.74,63.74,0,0,1,352.12,424.9Z"/><path class="cls-1" d="M271.4,434a63.74,63.74,0,0,1-90.14,0L18.67,271.4a63.74,63.74,0,0,1,0-90.14l98-97.95C94.27,159,147.72,219.67,153.37,225.82l.48.51h0L271.4,343.85A63.72,63.72,0,0,1,271.4,434Z"/><path class="cls-1" d="M290.07,63.73A63.57,63.57,0,0,1,271.4,108.8L160.94,219.26l-.32-.32c-6.22-6.82-55-63.14-34.39-132.8l5.22-17.67,49.81-49.81A63.74,63.74,0,0,1,290.07,63.73Z"/><path class="cls-1" d="M312.58,281.43l32.72,32.72,76.92-76.92,29.9,29.9L340.75,378.5,189.08,226.83l109-109,29.46,29.46L253,221.85l31,31,70.42-70.42L383,211Z"/></g></g></svg>