<?xml version="1.0" standalone="no"?>
<!DOCTYPE svg PUBLIC "-//W3C//DTD SVG 20010904//EN"
 "http://www.w3.org/TR/2001/REC-SVG-20010904/DTD/svg10.dtd">
<svg version="1.0" xmlns="http://www.w3.org/2000/svg"
 width="367.000000pt" height="367.000000pt" viewBox="0 0 367.000000 367.000000"
 preserveAspectRatio="xMidYMid meet">
<metadata>
Created by potrace 1.14, written by Peter Selinger 2001-2017
</metadata>
<g transform="translate(0.000000,367.000000) scale(0.100000,-0.100000)"
fill="#000000" stroke="none">
<path d="M2462 2188 c-51 -128 -93 -242 -94 -253 -3 -19 180 -334 194 -335 4
0 23 27 44 60 20 33 42 60 48 60 6 0 100 -64 209 -141 108 -77 201 -139 207
-137 5 2 -26 68 -68 148 -136 253 -181 339 -309 588 -69 133 -129 242 -132
242 -4 0 -49 -105 -99 -232z"/>
<path d="M5 2327 c-3 -6 -4 -192 -3 -412 l3 -400 248 -3 247 -2 0 75 0 75
-170 0 -170 0 0 90 0 89 78 3 77 3 0 80 0 80 -77 3 -78 3 0 84 0 85 170 0 170
0 0 80 0 80 -245 0 c-188 0 -247 -3 -250 -13z"/>
<path d="M565 2327 c-3 -6 -4 -192 -3 -412 l3 -400 83 -3 82 -3 0 198 0 198
83 -195 82 -195 85 0 85 0 0 410 0 410 -80 0 -80 0 -5 -182 -5 -183 -78 185
-79 185 -84 0 c-59 0 -86 -4 -89 -13z"/>
<path d="M1130 1925 l0 -415 80 0 80 0 0 415 0 415 -80 0 -80 0 0 -415z"/>
<path d="M1404 2273 l-64 -66 0 -294 0 -294 58 -54 57 -54 135 -1 136 0 57 58
57 58 0 152 0 152 -135 0 -135 0 0 -75 0 -75 55 0 55 0 0 -38 c0 -52 -26 -75
-85 -75 -30 0 -52 6 -65 18 -19 17 -20 31 -20 232 0 257 2 263 85 263 61 0 85
-19 85 -68 l0 -32 80 0 80 0 0 70 0 71 -62 59 -63 59 -124 1 -123 0 -64 -67z"/>
<path d="M3261 1947 c-47 -215 -87 -402 -89 -414 -4 -22 -2 -23 82 -23 83 0
86 1 92 25 6 24 10 25 80 25 72 0 74 -1 74 -25 0 -25 1 -25 80 -25 59 0 80 3
80 13 0 7 -36 192 -80 412 -44 220 -80 401 -80 402 0 2 -35 3 -77 3 l-78 0
-84 -393z m203 -179 l7 -48 -46 0 c-29 0 -45 4 -45 13 0 6 10 75 22 152 l22
140 17 -105 c9 -58 20 -126 23 -152z"/>
<path d="M2056 1764 c-81 -179 -146 -327 -144 -330 3 -2 251 -3 552 -2 l547 3
-162 125 c-90 69 -168 128 -175 133 -9 5 -26 -16 -54 -68 -23 -41 -45 -75 -50
-75 -4 0 -86 121 -181 270 -96 148 -176 270 -179 270 -3 0 -72 -147 -154 -326z"/>
<path d="M510 1289 c0 -51 0 -51 27 -44 31 8 43 21 43 51 0 26 -18 44 -47 44
-21 0 -23 -4 -23 -51z m48 3 c3 -27 0 -32 -17 -32 -17 0 -21 6 -21 36 0 28 3
35 18 32 11 -2 18 -14 20 -36z"/>
<path d="M590 1295 c0 -25 5 -45 10 -45 6 0 10 20 10 45 0 25 -4 45 -10 45 -5
0 -10 -20 -10 -45z"/>
<path d="M630 1321 c-13 -25 -4 -67 16 -75 21 -8 41 3 47 25 6 21 -18 38 -31
24 -4 -4 -1 -10 6 -12 19 -7 14 -23 -8 -23 -15 0 -20 7 -20 29 0 36 15 48 37
29 14 -11 16 -11 11 2 -7 24 -45 24 -58 1z"/>
<path d="M710 1295 c0 -25 5 -45 10 -45 6 0 10 20 10 45 0 25 -4 45 -10 45 -5
0 -10 -20 -10 -45z"/>
<path d="M753 1328 c9 -7 18 -29 20 -48 4 -34 4 -33 5 7 2 30 7 43 20 46 9 3
-1 5 -22 6 -34 1 -37 -1 -23 -11z"/>
<path d="M818 1295 c-10 -25 -13 -45 -8 -45 6 0 10 5 10 10 0 14 33 13 48 -2
8 -8 12 -8 12 -1 0 18 -30 83 -38 83 -4 0 -15 -20 -24 -45z m28 -12 c-10 -10
-19 5 -10 18 6 11 8 11 12 0 2 -7 1 -15 -2 -18z"/>
<path d="M892 1293 c3 -44 5 -48 31 -51 15 -2 27 1 27 7 0 6 -9 11 -20 11 -17
0 -20 7 -20 40 0 22 -5 40 -11 40 -6 0 -9 -19 -7 -47z"/>
<path d="M1006 1325 c-20 -54 13 -99 50 -69 18 13 17 14 -7 8 -29 -6 -41 10
-32 45 6 24 23 27 42 9 11 -11 13 -10 9 2 -6 21 -54 25 -62 5z"/>
<path d="M1080 1296 c0 -25 5 -46 10 -46 6 0 10 7 10 15 0 8 5 15 10 15 6 0
13 -7 16 -15 11 -28 20 -15 20 28 -1 40 -3 42 -33 45 -33 3 -33 3 -33 -42z
m50 19 c0 -8 -7 -15 -15 -15 -8 0 -15 7 -15 15 0 8 7 15 15 15 8 0 15 -7 15
-15z"/>
<path d="M1175 1304 c-20 -48 -19 -57 5 -42 15 10 22 10 32 0 23 -23 27 -12
10 33 -9 25 -20 45 -24 45 -4 0 -15 -16 -23 -36z m35 -15 c0 -5 -4 -9 -10 -9
-5 0 -10 7 -10 16 0 8 5 12 10 9 6 -3 10 -10 10 -16z"/>
<path d="M1251 1293 c0 -33 3 -42 8 -29 4 11 16 23 27 27 17 7 17 8 -3 8 -33
1 -29 29 5 34 25 4 25 4 -5 6 -33 1 -33 1 -32 -46z"/>
<path d="M1328 1333 c7 -2 12 -22 12 -44 0 -21 5 -39 10 -39 6 0 10 18 10 39
0 22 5 42 13 44 6 3 -4 5 -23 5 -19 0 -29 -2 -22 -5z"/>
<path d="M1390 1295 c0 -25 5 -45 10 -45 6 0 10 20 10 45 0 25 -4 45 -10 45
-5 0 -10 -20 -10 -45z"/>
<path d="M1431 1293 c2 -46 2 -46 8 -13 l7 35 17 -32 c25 -46 37 -41 36 15 -2
45 -2 46 -8 12 l-7 -35 -20 32 c-10 18 -22 33 -26 33 -5 0 -7 -21 -7 -47z"/>
<path d="M1527 1334 c-12 -13 -8 -71 7 -83 16 -14 42 -5 50 16 8 19 -1 33 -21
33 -13 0 -13 -3 -3 -15 15 -18 7 -30 -15 -22 -17 7 -21 52 -5 62 6 4 18 1 27
-7 14 -11 16 -11 11 2 -5 16 -39 25 -51 14z"/>
<path d="M1647 1334 c-13 -13 -7 -71 9 -84 12 -11 18 -10 32 4 16 16 15 16 -8
14 -20 -2 -26 2 -28 21 -5 33 12 48 34 30 15 -12 17 -12 12 1 -5 16 -39 25
-51 14z"/>
<path d="M1720 1320 c-14 -27 -6 -66 16 -74 27 -10 45 13 42 53 -2 28 -8 37
-25 39 -14 2 -26 -4 -33 -18z m45 -26 c0 -19 -6 -30 -17 -32 -14 -3 -18 3 -18
26 0 16 3 32 7 36 14 13 28 -1 28 -30z"/>
<path d="M1800 1296 c0 -25 4 -47 8 -50 18 -11 53 8 59 32 8 33 -8 56 -41 60
-25 3 -26 1 -26 -42z m48 -4 c3 -27 0 -32 -17 -32 -17 0 -21 6 -21 36 0 28 3
35 18 32 11 -2 18 -14 20 -36z"/>
<path d="M1882 1293 c3 -44 5 -48 31 -51 15 -2 27 1 27 7 0 6 -9 11 -20 11
-27 0 -25 28 3 33 l22 4 -22 2 c-13 0 -23 7 -23 15 0 8 10 17 23 19 15 3 12 5
-11 6 l-33 1 3 -47z"/>
<path d="M2020 1296 c0 -50 10 -61 45 -52 22 6 24 11 22 49 -2 40 -4 42 -34
45 -33 3 -33 3 -33 -42z m53 19 c1 -5 -6 -11 -15 -13 -11 -2 -18 3 -18 13 0
17 30 18 33 0z m0 -40 c1 -5 -6 -11 -15 -13 -11 -2 -18 3 -18 13 0 17 30 18
33 0z"/>
<path d="M2100 1318 c0 -57 22 -84 55 -72 11 4 15 20 14 53 l-2 46 -6 -40 c-4
-27 -12 -41 -23 -43 -15 -3 -18 4 -18 37 0 23 -4 41 -10 41 -5 0 -10 -10 -10
-22z"/>
<path d="M2190 1295 c0 -25 5 -45 10 -45 6 0 10 20 10 45 0 25 -4 45 -10 45
-5 0 -10 -20 -10 -45z"/>
<path d="M2226 1328 c-4 -9 -6 -31 -4 -50 2 -26 8 -34 27 -36 13 -2 28 1 34 7
8 8 4 11 -15 11 -24 0 -27 4 -30 43 -3 29 -6 37 -12 25z"/>
<path d="M2300 1295 c0 -50 15 -64 49 -45 40 21 24 90 -20 90 -28 0 -29 -2
-29 -45z m48 -3 c3 -27 0 -32 -17 -32 -17 0 -21 6 -21 36 0 28 3 35 18 32 11
-2 18 -14 20 -36z"/>
<path d="M2387 1313 c-3 -15 -1 -36 3 -47 7 -16 9 -9 9 27 1 52 -4 61 -12 20z"/>
<path d="M2421 1293 c2 -45 2 -46 8 -13 l6 35 20 -32 c11 -18 23 -33 27 -33 4
0 7 21 7 48 -2 44 -2 45 -8 12 l-6 -35 -20 33 c-11 17 -23 32 -27 32 -4 0 -7
-21 -7 -47z"/>
<path d="M2517 1334 c-12 -13 -8 -71 7 -83 24 -20 67 14 50 40 -11 18 -25 9
-19 -12 6 -17 3 -20 -12 -17 -20 4 -30 45 -14 61 7 7 15 6 27 -4 15 -12 17
-12 12 1 -5 16 -39 25 -51 14z"/>
<path d="M2637 1333 c-14 -14 -6 -34 18 -43 33 -13 32 -30 -2 -30 -23 -1 -25
-2 -11 -10 22 -14 48 -2 48 21 0 12 -10 23 -26 29 -28 11 -23 35 7 27 11 -3
19 -1 19 4 0 10 -43 12 -53 2z"/>
<path d="M2708 1327 c-10 -24 1 -75 18 -81 31 -12 44 5 42 53 l-1 46 -4 -42
c-3 -34 -8 -43 -23 -43 -15 0 -19 9 -22 43 -2 29 -5 36 -10 24z"/>
<path d="M2797 1334 c-4 -4 -7 -22 -7 -40 0 -34 22 -56 48 -47 20 8 14 20 -10
19 -17 -1 -24 5 -26 23 -5 33 13 48 34 30 15 -12 17 -12 12 1 -5 16 -39 25
-51 14z"/>
<path d="M2869 1316 c-10 -20 -9 -30 5 -51 19 -29 29 -31 47 -9 11 13 9 14
-14 9 -25 -7 -27 -5 -27 23 0 37 15 49 37 30 14 -11 16 -11 11 2 -8 27 -47 24
-59 -4z"/>
<path d="M2948 1323 c-2 -10 -2 -33 0 -50 3 -27 9 -33 28 -33 12 0 26 5 29 10
4 6 -5 10 -19 10 -32 0 -35 27 -3 33 l22 4 -22 2 c-33 2 -29 29 5 34 26 4 25
4 -5 6 -23 1 -32 -4 -35 -16z"/>
<path d="M3027 1333 c-14 -14 -6 -34 18 -43 33 -13 32 -30 -2 -30 -24 -1 -25
-2 -11 -11 22 -12 58 5 58 27 0 8 -11 19 -25 24 -30 11 -34 35 -5 27 11 -3 20
-1 20 4 0 10 -43 12 -53 2z"/>
<path d="M3107 1333 c-14 -14 -6 -34 18 -43 33 -13 32 -30 -2 -30 -24 -1 -25
-2 -11 -11 12 -7 24 -6 38 1 26 14 21 31 -13 48 -30 14 -26 37 4 29 11 -3 19
-1 19 4 0 10 -43 12 -53 2z"/>
<path d="M410 1280 c0 -5 9 -10 20 -10 11 0 20 5 20 10 0 6 -9 10 -20 10 -11
0 -20 -4 -20 -10z"/>
<path d="M3220 1280 c0 -5 9 -10 20 -10 11 0 20 5 20 10 0 6 -9 10 -20 10 -11
0 -20 -4 -20 -10z"/>
</g>
</svg>
