<svg xmlns="http://www.w3.org/2000/svg"  viewBox="0 0 68 68" width="68px" height="68px"><path d="M 8.7109375 4.2128906 C 5.2908936 4.2128906 2.5214844 6.9829102 2.5214844 10.392578 L 2.5214844 47.552734 C 2.5214844 50.962891 5.2908935 53.732422 8.7109375 53.732422 L 24.205078 53.732422 L 21.623047 61.787109 L 18.867188 61.787109 C 18.314941 61.787109 17.867188 62.234863 17.867188 62.787109 C 17.867188 63.339355 18.314941 63.787109 18.867188 63.787109 L 44.167969 63.787109 C 44.720215 63.787109 45.167969 63.339355 45.167969 62.787109 C 45.167969 62.234863 44.720215 61.787109 44.167969 61.787109 L 41.412109 61.787109 L 38.830078 53.732422 L 44.591797 53.732422 C 47.526428 55.161686 50.831615 55.517635 53.691406 54.892578 C 53.721316 54.882778 53.761116 54.883267 53.791016 54.873047 L 56.992188 60.982422 C 58.119968 63.17857 60.860165 64.130325 63.152344 62.882812 L 63.201172 62.853516 C 65.414241 61.591069 66.155907 58.755684 64.791016 56.572266 L 61.261719 50.652344 C 61.291629 50.632324 61.311767 50.602546 61.341797 50.572266 C 66.993351 43.784886 65.896954 35.398639 60.511719 30.412109 L 60.511719 10.392578 C 60.511719 6.9829102 57.7323 4.2128906 54.322266 4.2128906 L 8.7109375 4.2128906 z M 8.7109375 6.2128906 L 54.322266 6.2128906 C 56.632324 6.2128906 58.511719 8.0825196 58.511719 10.392578 L 58.511719 28.873047 C 57.331666 28.123047 56.042236 27.541991 54.652344 27.162109 C 50.309185 25.955011 45.857384 26.870374 42.392578 29.412109 L 42.392578 26.292969 C 42.392578 26.003419 42.141601 25.753906 41.851562 25.753906 L 37.351562 25.753906 C 37.051513 25.753906 36.822266 26.003419 36.822266 26.292969 L 36.822266 36.003906 L 34.300781 36.003906 L 34.300781 22.673828 C 34.300781 22.373535 34.061646 22.132813 33.761719 22.132812 L 29.271484 22.132812 C 28.981567 22.132812 28.732422 22.373535 28.732422 22.673828 L 28.732422 36.003906 L 26.210938 36.003906 L 26.210938 32.033203 C 26.210938 31.743164 25.971558 31.492187 25.681641 31.492188 L 21.181641 31.492188 C 20.881592 31.492188 20.652344 31.743164 20.652344 32.033203 L 20.652344 36.003906 L 18.130859 36.003906 L 18.130859 27.693359 C 18.130859 27.40332 17.891846 27.162109 17.591797 27.162109 L 13.101562 27.162109 C 12.811523 27.162109 12.5625 27.40332 12.5625 27.693359 L 12.5625 36.003906 L 10.941406 36.003906 C 10.401367 36.003906 9.9511719 36.442383 9.9511719 36.992188 C 9.9511719 37.541992 10.401367 37.982422 10.941406 37.982422 L 36.880859 37.982422 C 36.560791 39.472168 36.482055 41.022461 36.662109 42.5625 L 4.5214844 42.5625 L 4.5214844 10.392578 C 4.5214844 8.0825196 6.401001 6.2128906 8.7109375 6.2128906 z M 31.191406 9.5332031 C 29.54092 9.5332031 28.645872 11.418129 29.521484 12.652344 L 24.271484 20.261719 C 23.674965 20.01808 22.856021 20.104175 22.261719 20.613281 L 17.460938 16.892578 C 17.470948 16.832518 17.472656 16.772949 17.472656 16.712891 C 17.472656 15.642578 16.601318 14.783203 15.53125 14.783203 C 14.471313 14.783203 13.611328 15.642578 13.611328 16.712891 C 13.611328 18.311748 15.456342 19.229168 16.732422 18.222656 L 21.582031 21.982422 C 21.572021 22.032222 21.572266 22.08252 21.572266 22.132812 C 21.572266 23.242677 22.46228 24.142578 23.572266 24.142578 C 25.086067 24.142578 26.030378 22.549041 25.392578 21.273438 L 30.751953 13.503906 C 31.162329 13.591206 31.555303 13.56665 31.972656 13.392578 L 36.992188 18.462891 C 36.202309 20.537075 39.015511 22.134628 40.431641 20.412109 L 44.130859 21.082031 C 44.320801 21.942383 45.091675 22.582031 46.011719 22.582031 C 47.071656 22.582031 47.941406 21.722168 47.941406 20.652344 C 47.941406 19.592285 47.071656 18.712891 46.011719 18.712891 C 45.331666 18.712891 44.730835 19.073243 44.380859 19.603516 L 40.880859 18.972656 C 40.768613 17.52918 39.196685 16.716677 37.992188 17.341797 L 33.03125 12.332031 C 33.59428 10.983504 32.601999 9.5332031 31.191406 9.5332031 z M 50.822266 28.632812 C 55.079536 28.632812 59.270328 30.896646 61.521484 34.873047 C 65.819103 42.486332 60.82433 52.042255 52.710938 53.033203 C 46.038609 54.107967 39.540967 49.34877 38.681641 42.5625 C 37.671338 35.493183 43.220051 28.632813 50.822266 28.632812 z M 50.451172 31.273438 C 44.634556 31.505987 40.287525 36.808789 41.322266 42.5625 C 42.132885 47.42292 46.662529 51.116196 52.011719 50.511719 C 55.774941 50.031025 59.068626 47.393382 60.142578 43.503906 C 61.887482 37.327911 57.093922 30.992259 50.451172 31.273438 z M 50.271484 34.902344 L 51.371094 34.902344 C 51.70105 34.902344 51.97107 35.133301 52.041016 35.453125 L 52.142578 35.943359 C 52.57251 36.053222 53.002563 36.232911 53.392578 36.462891 L 53.832031 36.183594 C 54.10205 35.993653 54.461303 36.033206 54.691406 36.273438 L 55.482422 37.042969 C 55.692505 37.273438 55.730831 37.632324 55.550781 37.902344 L 55.28125 38.322266 C 55.511352 38.722168 55.681152 39.132324 55.791016 39.582031 L 56.291016 39.681641 C 56.611084 39.731931 56.851562 40.022461 56.851562 40.332031 L 56.851562 41.453125 C 56.851562 41.773437 56.611084 42.063476 56.291016 42.113281 L 55.800781 42.212891 C 55.686283 42.669015 55.534572 43.066986 55.291016 43.482422 L 55.572266 43.902344 C 55.762329 44.172363 55.722416 44.533691 55.482422 44.753906 L 54.701172 45.542969 C 54.481201 45.773438 54.121582 45.813475 53.851562 45.623047 L 53.431641 45.353516 C 53.031495 45.583008 52.611817 45.762695 52.171875 45.882812 L 52.072266 46.373047 C 52.022216 46.683105 51.732055 46.923828 51.412109 46.923828 L 50.300781 46.923828 C 49.970825 46.923828 49.700806 46.692871 49.630859 46.382812 L 49.53125 45.892578 C 49.101318 45.772949 48.671386 45.603515 48.28125 45.363281 L 47.851562 45.652344 C 47.571534 45.832032 47.222168 45.791988 46.992188 45.5625 L 46.210938 44.773438 C 45.980958 44.563477 45.941167 44.183594 46.121094 43.923828 L 46.402344 43.513672 C 46.16769 43.109593 45.981004 42.646092 45.871094 42.242188 L 45.392578 42.142578 C 45.062504 42.092769 44.822266 41.822266 44.822266 41.482422 L 44.822266 40.373047 C 44.822266 40.053223 45.050781 39.773438 45.380859 39.703125 L 45.861328 39.613281 C 45.981323 39.173339 46.152588 38.753418 46.392578 38.353516 C 46.327158 38.253025 46.045909 37.823338 46.111328 37.923828 C 45.922397 37.640434 45.964655 37.261978 46.181641 37.0625 L 46.972656 36.283203 C 47.192749 36.053222 47.562256 36.023439 47.822266 36.203125 L 48.232422 36.472656 C 48.772457 36.15768 49.411579 35.973641 49.511719 35.953125 L 49.611328 35.453125 C 49.651368 35.133301 49.94165 34.902344 50.271484 34.902344 z M 50.841797 38.3125 C 49.401856 38.3125 48.222656 39.472167 48.222656 40.912109 C 48.222656 42.365581 49.40437 43.523438 50.841797 43.523438 C 52.256542 43.523438 53.451172 42.390414 53.451172 40.912109 C 53.451172 39.472167 52.281739 38.3125 50.841797 38.3125 z"/></svg>