<svg xmlns="http://www.w3.org/2000/svg" xmlns:xlink="http://www.w3.org/1999/xlink" viewBox="0,0,256,256" width="64px" height="64px" fill-rule="nonzero" fill="#449ffc"><g fill="#449ffc" fill-rule="nonzero" stroke="none" stroke-width="1" stroke-linecap="butt" stroke-linejoin="miter" stroke-miterlimit="10" stroke-dasharray="" stroke-dashoffset="0" font-family="none" font-weight="none" font-size="none" text-anchor="none" style="mix-blend-mode: normal"><g transform="scale(4,4)"><path d="M6,9c-1.65685,0 -3,1.34315 -3,3v35h-2c-0.55228,0 -1,0.44772 -1,1v4c0,1.65685 1.34315,3 3,3h58c1.65685,0 3,-1.34315 3,-3v-4c0,-0.55228 -0.44772,-1 -1,-1h-2v-35c0,-1.65685 -1.34315,-3 -3,-3zM6,11h52c0.55228,0 1,0.44772 1,1v35h-20c-0.3788,-0.00005 -0.72511,0.21394 -0.89453,0.55273l-0.72266,1.44727h-10.76562l-0.72266,-1.44727c-0.16942,-0.3388 -0.51573,-0.55278 -0.89453,-0.55273h-20v-35c0,-0.55228 0.44772,-1 1,-1zM8,13c-0.55228,0 -1,0.44772 -1,1v30c0,0.55228 0.44772,1 1,1h48c0.55228,0 1,-0.44772 1,-1v-30c0,-0.55228 -0.44772,-1 -1,-1zM9,15h46v28h-46zM38,17c-0.55228,0 -1,0.44772 -1,1v4c0,0.55228 0.44772,1 1,1h14c0.55228,0 1,-0.44772 1,-1v-4c0,-0.55228 -0.44772,-1 -1,-1zM22.50195,17.00977c-6.53057,0.26352 -11.64925,5.70484 -11.51359,12.23931c0.13566,6.53447 5.47576,11.75867 12.01164,11.75092v-2c-2.30535,-0.00325 -4.53877,-0.80292 -6.32227,-2.26367l7.0293,-7.0293c0.18755,-0.18751 0.29293,-0.44183 0.29297,-0.70703v-9.93945c5.1059,0.51316 8.99465,4.80784 9,9.93945h2c0.00016,-3.2691 -1.33343,-6.39677 -3.69246,-8.65995c-2.35903,-2.26318 -5.5393,-3.46596 -8.80558,-3.33028zM39,19h12v2h-12zM22,19.06055v8.93945h-8.9375c0.47919,-4.7237 4.2139,-8.45923 8.9375,-8.93945zM38,25c-0.55228,0 -1,0.44772 -1,1v4c0,0.55228 0.44772,1 1,1h4c0.55228,0 1,-0.44772 1,-1v-4c0,-0.55228 -0.44772,-1 -1,-1zM45,25v2h2v-2zM49,25v2h4v-2zM39,27h2v2h-2zM45,29v2h8v-2zM13.0625,30h7.52344l-5.32227,5.32227c-1.23979,-1.51983 -2.00527,-3.3707 -2.20117,-5.32227zM29,30c-0.55228,0 -1,0.44772 -1,1v2h-3c-0.55228,0 -1,0.44772 -1,1v6c0,0.55228 0.44772,1 1,1h4h4h4c0.55228,0 1,-0.44772 1,-1v-5c0,-0.55228 -0.44772,-1 -1,-1h-3v-3c0,-0.55228 -0.44772,-1 -1,-1zM30,32h2v7h-2v-5zM40,33v2h2v-2zM44,33v2h9v-2zM26,35h2v4h-2zM34,36h2v3h-2zM40,37v2h13v-2zM2,49h22.38281l0.72266,1.44727c0.16942,0.3388 0.51573,0.55278 0.89453,0.55273h12c0.38091,0.00228 0.73003,-0.21204 0.90039,-0.55273l0.7168,-1.44727h22.38281v3c0,0.55228 -0.44772,1 -1,1h-58c-0.55228,0 -1,-0.44772 -1,-1z"></path></g></g></svg>