<svg xmlns="http://www.w3.org/2000/svg" xmlns:xlink="http://www.w3.org/1999/xlink" viewBox="0,0,256,256" width="50px" height="50px"><g fill="#fa5252" fill-rule="nonzero" stroke="none" stroke-width="1" stroke-linecap="butt" stroke-linejoin="miter" stroke-miterlimit="10" stroke-dasharray="" stroke-dashoffset="0" font-family="none" font-weight="none" font-size="none" text-anchor="none" style="mix-blend-mode: normal"><g transform="scale(5.12,5.12)"><path d="M20,2c-4.40163,0 -8,3.59837 -8,8c0,3.70551 2.95363,7.36549 5.81055,10.30859c2.85639,2.94257 5.73327,5.1008 5.99414,5.29492c0.3528,0.26311 0.77579,0.39648 1.19531,0.39648c0.41952,0 0.83949,-0.13212 1.19141,-0.39258c0.00131,-0.0013 0.00261,-0.0026 0.00391,-0.00391c0.2512,-0.18746 3.13724,-2.3517 5.99414,-5.29492c2.8569,-2.94322 5.81055,-6.60308 5.81055,-10.30859c0,-4.40249 -3.59855,-8 -8,-8c-2.28597,0 -3.88236,1.03055 -5,1.98242c-1.11764,-0.95188 -2.71403,-1.98242 -5,-1.98242zM20,4c1.99837,0 3.46409,1.08732 4.29297,1.91797c0.39053,0.39037 1.02353,0.39037 1.41406,0c0.82888,-0.83065 2.2946,-1.91797 4.29297,-1.91797c3.31654,0 6,2.68249 6,6c0,2.53749 -2.51579,6.10524 -5.24414,8.91602c-2.72737,2.80977 -5.54027,4.92309 -5.75586,5.08398c-0.20504,-0.15257 -3.02753,-2.27334 -5.75586,-5.08398c-2.72833,-2.81064 -5.24414,-6.37853 -5.24414,-8.91602c0,-3.31637 2.68363,-6 6,-6zM5.43945,7.11328c-1.94383,0.17548 -3.43945,1.8177 -3.43945,3.75586v0.13086v20.25586c0,1.70437 0.72483,3.32945 1.99414,4.4668l7.34375,6.58203c1.05909,0.94985 1.66211,2.30309 1.66211,3.72461v0.9707c-0.0051,0.36064 0.18438,0.69608 0.49587,0.87789c0.3115,0.18181 0.69676,0.18181 1.00825,0c0.3115,-0.18181 0.50097,-0.51725 0.49587,-0.87789v-0.9707c0,-1.98848 -0.84722,-3.88474 -2.32812,-5.21289l-7.3418,-6.58203c0,-0.00065 0,-0.0013 0,-0.00195c-0.84669,-0.75861 -1.33008,-1.83893 -1.33008,-2.97656v-20.25586v-0.13086c0,-0.92122 0.68199,-1.6783 1.61719,-1.76367c0.97945,-0.08269 1.82222,0.63105 1.91797,1.62109l1.01758,10.51563c0.00177,0.02352 0.00438,0.04697 0.00781,0.07031c-0.03721,0.03237 -0.07896,0.05591 -0.11523,0.08984c-1.60747,1.50487 -1.7366,4.04059 -0.28711,5.69922l6.57617,7.52539c0.23423,0.27237 0.59655,0.3982 0.94918,0.32962c0.35263,-0.06857 0.64139,-0.32101 0.75648,-0.66131c0.11509,-0.3403 0.03882,-0.71619 -0.1998,-0.98472l-6.57617,-7.52539c-0.75451,-0.86337 -0.69005,-2.13874 0.14648,-2.92187c0.81688,-0.7642 2.06141,-0.76536 2.87891,-0.00195l9.08984,8.49805c1.41596,1.32324 2.2207,3.17376 2.2207,5.11328v10.52734c-0.00693,0.52481 0.39302,0.96568 0.91602,1.00977c0.03312,0.00296 0.06636,0.00426 0.09961,0.00391c0.55152,-0.00862 0.99193,-0.46214 0.98438,-1.01367v-10.52734c0,-1.9384 0.8049,-3.79024 2.2207,-5.11328l9.08984,-8.49805c0.81763,-0.76426 2.06189,-0.7631 2.87891,0.00195c0.83632,0.78294 0.90037,2.0599 0.14648,2.92188l-6.57617,7.52539c-0.23862,0.26853 -0.31489,0.64442 -0.1998,0.98472c0.11509,0.3403 0.40385,0.59274 0.75648,0.66131c0.35263,0.06857 0.71495,-0.05725 0.94918,-0.32962l6.57617,-7.52539h-0.00195c1.45016,-1.65807 1.32252,-4.19415 -0.28516,-5.69922c-0.03598,-0.03369 -0.07834,-0.05575 -0.11523,-0.08789c0.00348,-0.02399 0.00609,-0.04809 0.00781,-0.07227l1.01758,-10.51563c0.09568,-0.98936 0.93743,-1.70263 1.91602,-1.62109h0.00195c0.93515,0.08537 1.61719,0.84246 1.61719,1.76367v0.13086v20.25586c0,1.13763 -0.48365,2.22009 -1.33008,2.97852l-7.3418,6.58398c-1.48054,1.32727 -2.32812,3.22299 -2.32812,5.21094v0.9707c-0.0051,0.36064 0.18438,0.69608 0.49587,0.87789c0.3115,0.18181 0.69676,0.18181 1.00825,0c0.3115,-0.18181 0.50097,-0.51725 0.49587,-0.87789v-0.9707c0,-1.42152 0.60339,-2.77397 1.66211,-3.72266l7.34375,-6.58398c1.26883,-1.13752 1.99414,-2.76297 1.99414,-4.4668v-20.25586v-0.13086c0,-1.93816 -1.49563,-3.58038 -3.43945,-3.75586c-0.00195,-0.00001 -0.00391,-0.00001 -0.00586,0c-2.05969,-0.17616 -3.88189,1.37065 -4.08008,3.41992l-0.95117,9.83984c-0.25537,-0.04851 -0.51426,-0.07409 -0.77344,-0.07422c-1.00967,-0.00049 -2.0185,0.3667 -2.80469,1.10156l-9.0918,8.49805c-0.76659,0.71637 -1.38448,1.55744 -1.85352,2.47266c-0.46905,-0.91511 -1.08699,-1.75635 -1.85352,-2.47266l-9.0918,-8.49805c-0.78625,-0.73427 -1.79522,-1.10205 -2.80469,-1.10156c-0.25913,0.00013 -0.51808,0.02566 -0.77344,0.07422l-0.95117,-9.83984c-0.19819,-2.04928 -2.02039,-3.59608 -4.08008,-3.41992c-0.00195,-0.00001 -0.00391,-0.00001 -0.00586,0z"></path></g></g></svg>