<svg xmlns="http://www.w3.org/2000/svg"  viewBox="0 0 512 512" width="64px" height="64px"><path d="M 55.982422 20.238281 C 39.439422 20.238281 25.982422 33.695281 25.982422 50.238281 C 25.982422 66.781281 39.439422 80.238281 55.982422 80.238281 C 72.525422 80.238281 85.982422 66.781281 85.982422 50.238281 C 85.982422 33.695281 72.525422 20.238281 55.982422 20.238281 z M 450.98438 20.238281 C 431.68637 20.238281 415.98438 35.941281 415.98438 55.238281 C 415.98438 74.535281 431.68737 90.238281 450.98438 90.238281 C 470.28138 90.238281 485.98438 74.535281 485.98438 55.238281 C 485.98438 35.941281 470.28138 20.238281 450.98438 20.238281 z M 216.34961 28.75 C 211.13461 28.75 206.79977 32.754219 206.38477 37.949219 L 202.90234 81.294922 C 190.48534 84.985922 178.45891 89.985563 167.00391 96.226562 L 133.87891 68.017578 C 129.90891 64.633578 124.01122 64.873547 120.32422 68.560547 L 64.302734 124.58594 C 60.615734 128.26794 60.377719 134.16562 63.761719 138.14062 L 91.96875 171.26172 C 85.72875 182.72172 80.72825 194.74316 77.03125 207.16016 L 33.691406 210.64062 C 28.496406 211.05562 24.492188 215.39742 24.492188 220.60742 L 24.492188 299.89648 C 24.492188 305.12248 28.507031 309.45914 33.707031 309.86914 L 77.027344 313.27539 C 80.714344 325.71639 85.71875 337.76814 91.96875 349.24414 L 63.759766 382.36719 C 60.375766 386.34219 60.615734 392.24183 64.302734 395.92383 L 120.32227 451.94922 C 124.00927 455.63922 129.91391 455.87509 133.87891 452.49609 L 167.00781 424.28125 C 178.36981 430.45325 190.39734 435.42572 202.90234 439.13672 L 206.37891 482.55469 C 206.79891 487.75969 211.13461 491.76367 216.34961 491.76367 L 295.64648 491.76367 C 300.86748 491.76367 305.20828 487.74992 305.61328 482.54492 L 309.01562 439.13672 C 321.54962 435.43572 333.60028 430.46325 344.98828 424.28125 L 378.11328 452.49609 C 382.08328 455.87509 387.98292 455.64122 391.66992 451.94922 L 447.69336 395.92383 C 451.38036 392.24183 451.61533 386.34319 448.23633 382.36719 L 420.02344 349.24219 C 426.20544 337.85419 431.18486 325.80539 434.88086 313.27539 L 478.2832 309.86719 C 483.4882 309.46819 487.50195 305.12248 487.50195 299.89648 L 487.50195 220.60547 C 487.50395 215.39547 483.49969 211.05562 478.30469 210.64062 L 434.87695 207.16016 C 431.17095 194.65516 426.19544 182.62863 420.02344 171.26562 L 448.23633 138.14062 C 451.61533 134.16563 451.38036 128.26794 447.69336 124.58594 L 391.66992 68.560547 C 387.98792 64.873547 382.08328 64.633578 378.11328 68.017578 L 344.98828 96.226562 C 333.51228 89.976562 321.46362 84.975203 309.01562 81.283203 L 305.61328 37.964844 C 305.20828 32.764844 300.86748 28.75 295.64648 28.75 L 216.34961 28.75 z M 55.982422 40.238281 C 61.495422 40.238281 65.982422 44.720281 65.982422 50.238281 C 65.982422 55.751281 61.495422 60.238281 55.982422 60.238281 C 50.464422 60.238281 45.982422 55.751281 45.982422 50.238281 C 45.982422 44.721281 50.465422 40.238281 55.982422 40.238281 z M 165.98438 40.238281 A 10 10 0 0 0 165.98438 60.238281 A 10 10 0 0 0 165.98438 40.238281 z M 450.98438 40.238281 C 459.25538 40.238281 465.98438 46.967281 465.98438 55.238281 C 465.98438 63.509281 459.25538 70.238281 450.98438 70.238281 C 442.71337 70.238281 435.98437 63.509281 435.98438 55.238281 C 435.98438 46.967281 442.71337 40.238281 450.98438 40.238281 z M 225.57617 48.748047 L 286.39648 48.748047 L 289.625 89.847656 C 289.962 94.115656 292.97877 97.698906 297.13477 98.753906 C 312.49577 102.65991 327.26148 108.78756 341.02148 116.97656 C 344.70048 119.16456 349.36309 118.76909 352.62109 115.99609 L 384.05664 89.228516 L 427.02734 132.19727 L 400.25781 163.62891 C 397.47981 166.89091 397.08834 171.54847 399.27734 175.23047 C 407.35234 188.79947 413.45211 203.54106 417.41211 219.03906 C 418.46711 223.18006 422.04169 226.19706 426.30469 226.53906 L 467.50586 229.83984 L 467.50586 290.6582 L 467.50391 290.6582 L 426.31641 293.88086 C 422.04441 294.21286 418.46125 297.23962 417.40625 301.39062 C 413.46125 316.91762 407.36139 331.69334 399.27539 345.27734 C 397.08739 348.96034 397.47786 353.61886 400.25586 356.88086 L 427.02539 388.31836 L 384.05469 431.28711 L 352.61914 404.50977 C 349.36114 401.73677 344.69853 401.3462 341.01953 403.5332 C 327.43053 411.6192 312.66581 417.72097 297.13281 421.66797 C 292.97881 422.72297 289.96005 426.30722 289.62305 430.57422 L 286.39453 471.76562 L 225.57422 471.76562 L 222.27344 430.55273 C 221.93144 426.29473 218.9243 422.72102 214.7793 421.66602 C 199.2813 417.71102 184.5397 411.6053 170.9707 403.5293 C 167.2937 401.3413 162.63005 401.73281 159.37305 404.50781 L 127.9375 431.28516 L 84.96875 388.31445 L 111.73633 356.87891 C 114.50933 353.61691 114.9048 348.95934 112.7168 345.27734 C 104.5288 331.51734 98.396141 316.75263 94.494141 301.39062 C 93.439141 297.24063 89.859891 294.22191 85.587891 293.87891 L 44.488281 290.65625 L 44.488281 229.83203 L 85.601562 226.53125 C 89.864563 226.18925 93.434141 223.17811 94.494141 219.03711 C 98.405141 203.71011 104.5378 188.96952 112.7168 175.22852 C 114.9048 171.54652 114.50933 166.88895 111.73633 163.62695 L 84.970703 132.19531 L 127.93945 89.226562 L 159.375 115.99414 C 162.627 118.76714 167.29566 119.16456 170.97266 116.97656 C 184.71266 108.79756 199.45425 102.66991 214.78125 98.753906 C 218.92225 97.693906 221.93339 94.123234 222.27539 89.865234 L 225.57617 48.748047 z M 255.95508 124.82422 C 181.30108 124.82422 120.56836 185.55794 120.56836 260.21094 C 120.56836 334.85694 181.30108 395.58984 255.95508 395.58984 C 330.60808 395.58984 391.3418 334.85794 391.3418 260.21094 C 391.3418 185.55794 330.60808 124.82422 255.95508 124.82422 z M 255.95508 144.82422 C 319.57808 144.82422 371.3418 196.58794 371.3418 260.21094 C 371.3418 323.83194 319.57808 375.58984 255.95508 375.58984 C 192.33108 375.58984 140.56836 323.83194 140.56836 260.21094 C 140.56836 196.58794 192.33208 144.82422 255.95508 144.82422 z M 255.93945 168.30273 C 205.27045 168.30273 164.04492 209.52727 164.04492 260.19727 C 164.04492 265.71827 168.51706 270.19017 174.03906 270.20117 C 174.16106 270.20117 214.14792 270.22852 214.04492 270.22852 C 219.56292 270.22852 224.04492 265.74756 224.04492 260.22656 C 224.04492 246.12856 233.23345 234.14273 245.93945 229.92773 L 245.93945 260.24023 C 245.93945 265.76423 250.41745 270.23828 255.93945 270.23828 C 261.46145 270.23828 265.93945 265.76423 265.93945 260.24023 L 265.93945 229.89844 C 278.70445 234.09244 287.94727 246.09956 287.94727 260.22656 C 287.94727 265.73656 292.42527 270.22852 297.94727 270.22852 C 298.12327 270.22852 337.78603 270.20117 337.95703 270.20117 C 343.47503 270.19017 347.94727 265.71827 347.94727 260.19727 C 347.94627 209.52627 306.67245 168.30273 255.93945 168.30273 z M 35.982422 170.24023 A 10 10 0 0 0 35.982422 190.24023 A 10 10 0 0 0 35.982422 170.24023 z M 455.98438 170.24023 A 10 10 0 0 0 455.98438 190.24023 A 10 10 0 0 0 455.98438 170.24023 z M 245.94141 188.99414 L 245.94141 209.2832 C 225.33041 213.3362 209.05667 229.6058 205.01367 250.2168 L 184.73828 250.20117 C 189.15728 218.54117 214.28141 193.42314 245.94141 188.99414 z M 265.93945 188.99609 C 297.65945 193.41509 322.82495 218.53617 327.25195 250.20117 L 306.98047 250.2168 C 302.93147 229.5868 286.60345 213.29644 265.93945 209.27344 L 265.93945 188.99609 z M 185.98438 290.23828 C 180.46238 290.23828 175.98438 294.72028 175.98438 300.23828 C 175.98438 305.76528 180.46238 310.23828 185.98438 310.23828 L 325.98438 310.23828 C 331.50538 310.23828 335.98438 305.76528 335.98438 300.23828 C 335.98438 294.72128 331.50738 290.23828 325.98438 290.23828 L 185.98438 290.23828 z M 225.98438 320.23828 C 220.46238 320.23828 215.98438 324.72028 215.98438 330.23828 C 215.98438 335.76528 220.46238 340.23828 225.98438 340.23828 L 285.98438 340.23828 C 291.50538 340.23828 295.98438 335.76528 295.98438 330.23828 C 295.98438 324.72128 291.50738 320.23828 285.98438 320.23828 L 225.98438 320.23828 z M 55.982422 330.23828 C 50.460422 330.23828 45.982422 334.72028 45.982422 340.23828 C 45.982422 345.76528 50.460422 350.23828 55.982422 350.23828 C 61.504422 350.23828 65.982422 345.76628 65.982422 340.23828 C 65.982422 334.72028 61.504422 330.23828 55.982422 330.23828 z M 465.98438 400.23828 C 460.46238 400.23828 455.98437 404.72028 455.98438 410.23828 C 455.98438 415.76528 460.46238 420.23828 465.98438 420.23828 C 471.50538 420.23828 475.98438 415.76528 475.98438 410.23828 C 475.98438 404.72128 471.50737 400.23828 465.98438 400.23828 z M 55.982422 420.23828 C 39.439422 420.23828 25.982422 433.69428 25.982422 450.23828 C 25.982422 466.78128 39.439422 480.23828 55.982422 480.23828 C 72.525422 480.23828 85.982422 466.78128 85.982422 450.23828 C 85.982422 433.69428 72.525422 420.23828 55.982422 420.23828 z M 55.982422 440.23828 C 61.495422 440.23828 65.982422 444.73028 65.982422 450.23828 C 65.982422 455.75628 61.495422 460.23828 55.982422 460.23828 C 50.464422 460.23828 45.982422 455.75628 45.982422 450.23828 C 45.982422 444.73028 50.464422 440.23828 55.982422 440.23828 z M 395.98438 460.23828 C 390.46238 460.23828 385.98437 464.71928 385.98438 470.23828 C 385.98438 475.76428 390.46238 480.23828 395.98438 480.23828 C 401.50538 480.23828 405.98438 475.76428 405.98438 470.23828 C 405.98438 464.72128 401.50737 460.23828 395.98438 460.23828 z"/></svg>