<svg xmlns="http://www.w3.org/2000/svg" xmlns:xlink="http://www.w3.org/1999/xlink" viewBox="0,0,256,256" width="50px" height="50px"><g fill="#000000" fill-rule="nonzero" stroke="none" stroke-width="1" stroke-linecap="butt" stroke-linejoin="miter" stroke-miterlimit="10" stroke-dasharray="" stroke-dashoffset="0" font-family="none" font-weight="none" font-size="none" text-anchor="none" style="mix-blend-mode: normal"><g transform="scale(5.12,5.12)"><path d="M38,0v4h5.1875l-9.1875,9.1875l-2.59375,-2.59375l-1.40625,-1.4375l-1.40625,1.4375l-10.59375,10.59375l-2.59375,-2.59375l-1.40625,-1.4375l-1.40625,1.4375l-12,12l2.8125,2.8125l10.59375,-10.59375l2.59375,2.59375l1.40625,1.4375l1.40625,-1.4375l10.59375,-10.59375l2.59375,2.59375l1.40625,1.4375l1.40625,-1.4375l10.59375,-10.59375v5.1875h4v-12zM44,15v35h4v-35zM30,20v30h4v-30zM37,20v30h4v-30zM23,24v26h4v-26zM16,30v20h4v-20zM9,31v19h4v-19zM2,38v12h4v-12z"></path></g></g></svg>