<svg xmlns="http://www.w3.org/2000/svg" xmlns:xlink="http://www.w3.org/1999/xlink" viewBox="0,0,256,256" width="80px" height="80px"><g fill="#000000" fill-rule="nonzero" stroke="none" stroke-width="1" stroke-linecap="butt" stroke-linejoin="miter" stroke-miterlimit="10" stroke-dasharray="" stroke-dashoffset="0" font-family="none" font-weight="none" font-size="none" text-anchor="none" style="mix-blend-mode: normal"><g transform="scale(3.2,3.2)"><path d="M25,8c-2.74952,0 -5,2.25048 -5,5v54c0,2.74952 2.25048,5 5,5h30c2.74952,0 5,-2.25048 5,-5v-54c0,-2.74952 -2.25048,-5 -5,-5zM25,10h30c1.66848,0 3,1.33152 3,3v3h-36v-3c0,-1.66848 1.33152,-3 3,-3zM31.94727,12c-0.55228,0 -1,0.44772 -1,1c0,0.55228 0.44772,1 1,1c0.55228,0 1,-0.44772 1,-1c0,-0.55228 -0.44772,-1 -1,-1zM36,12c-0.36064,-0.0051 -0.69608,0.18438 -0.87789,0.49587c-0.18181,0.3115 -0.18181,0.69676 0,1.00825c0.18181,0.3115 0.51725,0.50097 0.87789,0.49587h8c0.36064,0.0051 0.69608,-0.18438 0.87789,-0.49587c0.18181,-0.3115 0.18181,-0.69676 0,-1.00825c-0.18181,-0.3115 -0.51725,-0.50097 -0.87789,-0.49587zM22,18h36v42h-36zM26,20c-0.55228,0 -1,0.44772 -1,1c0,0.55228 0.44772,1 1,1c0.55228,0 1,-0.44772 1,-1c0,-0.55228 -0.44772,-1 -1,-1zM26,24c-0.55228,0 -1,0.44772 -1,1c0,0.55228 0.44772,1 1,1c0.55228,0 1,-0.44772 1,-1c0,-0.55228 -0.44772,-1 -1,-1zM40,25c-5.51058,0 -10,4.48942 -10,10c0,1.54431 0.62582,3.29552 1.49609,5.19727c0.87028,1.90175 2.01228,3.92077 3.15039,5.7793c2.27622,3.71706 4.54883,6.79883 4.54883,6.79883l0.80469,1.0918l0.80469,-1.0918c0,0 2.27261,-3.08177 4.54883,-6.79883c1.13811,-1.85853 2.28011,-3.87755 3.15039,-5.7793c0.87028,-1.90175 1.49609,-3.65295 1.49609,-5.19727c0,-5.51058 -4.48942,-10 -10,-10zM40,27c4.42942,0 8,3.57058 8,8c0,0.94069 -0.49918,2.57942 -1.31641,4.36523c-0.81722,1.78582 -1.92522,3.75069 -3.03711,5.56641c-1.82181,2.97502 -3.04626,4.622 -3.64648,5.45313c-0.60022,-0.83113 -1.82467,-2.47811 -3.64648,-5.45312c-1.11189,-1.81572 -2.21989,-3.78059 -3.03711,-5.56641c-0.81722,-1.78582 -1.31641,-3.42455 -1.31641,-4.36523c0,-4.42942 3.57058,-8 8,-8zM26,28c-0.55228,0 -1,0.44772 -1,1c0,0.55228 0.44772,1 1,1c0.55228,0 1,-0.44772 1,-1c0,-0.55228 -0.44772,-1 -1,-1zM26,32c-0.55228,0 -1,0.44772 -1,1c0,0.55228 0.44772,1 1,1c0.55228,0 1,-0.44772 1,-1c0,-0.55228 -0.44772,-1 -1,-1zM40,32c-1.64501,0 -3,1.35499 -3,3c0,1.64501 1.35499,3 3,3c1.64501,0 3,-1.35499 3,-3c0,-1.64501 -1.35499,-3 -3,-3zM40,34c0.56413,0 1,0.43587 1,1c0,0.56413 -0.43587,1 -1,1c-0.56413,0 -1,-0.43587 -1,-1c0,-0.56413 0.43587,-1 1,-1zM26,36c-0.55228,0 -1,0.44772 -1,1c0,0.55228 0.44772,1 1,1c0.55228,0 1,-0.44772 1,-1c0,-0.55228 -0.44772,-1 -1,-1zM26,40c-0.55228,0 -1,0.44772 -1,1c0,0.55228 0.44772,1 1,1c0.55228,0 1,-0.44772 1,-1c0,-0.55228 -0.44772,-1 -1,-1zM26,44c-0.55228,0 -1,0.44772 -1,1c0,0.55228 0.44772,1 1,1c0.55228,0 1,-0.44772 1,-1c0,-0.55228 -0.44772,-1 -1,-1zM26,48c-0.55228,0 -1,0.44772 -1,1c0,0.55228 0.44772,1 1,1c0.55228,0 1,-0.44772 1,-1c0,-0.55228 -0.44772,-1 -1,-1zM26,52c-0.55228,0 -1,0.44772 -1,1c0,0.55228 0.44772,1 1,1c0.55228,0 1,-0.44772 1,-1c0,-0.55228 -0.44772,-1 -1,-1zM26,56c-0.55228,0 -1,0.44772 -1,1c0,0.55228 0.44772,1 1,1c0.55228,0 1,-0.44772 1,-1c0,-0.55228 -0.44772,-1 -1,-1zM22,62h36v5c0,1.66848 -1.33152,3 -3,3h-30c-1.66848,0 -3,-1.33152 -3,-3zM40,64c-1.10457,0 -2,0.89543 -2,2c0,1.10457 0.89543,2 2,2c1.10457,0 2,-0.89543 2,-2c0,-1.10457 -0.89543,-2 -2,-2z"></path></g></g></svg>