<svg xmlns="http://www.w3.org/2000/svg" xmlns:xlink="http://www.w3.org/1999/xlink" viewBox="0,0,256,256" width="64px" height="64px" fill-rule="nonzero" fill="#449ffc"><g fill="#449ffc" fill-rule="nonzero" stroke="none" stroke-width="1" stroke-linecap="butt" stroke-linejoin="miter" stroke-miterlimit="10" stroke-dasharray="" stroke-dashoffset="0" font-family="none" font-weight="none" font-size="none" text-anchor="none" style="mix-blend-mode: normal"><g transform="scale(0.49231,0.49231)"><path d="M70,30c-5.52285,0 -10,4.47715 -10,10c0,5.52285 4.47715,10 10,10c5.52285,0 10,-4.47715 10,-10c0,-5.52285 -4.47715,-10 -10,-10zM120,40c-5.523,0 -10,4.477 -10,10v110c0,5.523 4.477,10 10,10h60c5.523,0 10,-4.477 10,-10v-30h60v100h-66.66797c-18.38,0 -33.33203,14.95203 -33.33203,33.33203v13.33594c0,18.38 14.95203,33.33203 33.33203,33.33203h66.66797v70h-30c-5.523,0 -10,4.478 -10,10v60c0,5.522 4.477,10 10,10h170c5.522,0 10,-4.478 10,-10v-60c0,-5.522 -4.478,-10 -10,-10h-30v-70c85.429,0.001 80.17716,0.0522 81.28516,-0.0918c0.996,-0.126 1.96293,-0.40868 2.83593,-0.80468c1.444,-0.655 -1.95609,1.75753 41.87891,-31.10547c5.335,-4.001 5.324,-12.006 0,-16c-42.531,-31.883 -40.06252,-30.18052 -41.35352,-30.85352c-1.125,-0.59 -2.48754,-0.99837 -3.81054,-1.10937c-0.664,-0.056 4.91106,-0.03516 -80.83594,-0.03516v-100h50v30c0,5.523 4.478,10 10,10h60c5.522,0 10,-4.477 10,-10v-110c0,-5.523 -4.478,-10 -10,-10zM130,60h340v90h-40v-30c0,-5.523 -4.478,-10 -10,-10h-70c-5.522,0 -10,4.477 -10,10v110h-70v-110c0,-5.523 -4.478,-10 -10,-10h-80c-5.523,0 -10,4.477 -10,10v30h-40zM70,70c-16.542,0 -30,13.458 -30,30c0,16.542 13.458,30 30,30c16.542,0 30,-13.458 30,-30c0,-16.542 -13.458,-30 -30,-30zM70,90c5.514,0 10,4.486 10,10c0,5.514 -4.486,10 -10,10c-5.514,0 -10,-4.486 -10,-10c0,-5.514 4.486,-10 10,-10zM200,180c-5.52285,0 -10,4.47715 -10,10c0,5.52285 4.47715,10 10,10c5.52285,0 10,-4.47715 10,-10c0,-5.52285 -4.47715,-10 -10,-10zM64.14063,190l-14.14258,14.14062l14.14258,14.14258l14.14063,-14.14258zM78.28125,204.14062l14.14258,14.14258l14.14258,-14.14258l-14.14258,-14.14062zM150,200c-5.52285,0 -10,4.47715 -10,10c0,5.52285 4.47715,10 10,10c5.52285,0 10,-4.47715 10,-10c0,-5.52285 -4.47715,-10 -10,-10zM92.42773,218.28516l-14.14062,14.14257l14.14063,14.14063l14.14258,-14.14258zM64.14063,218.28711l-14.14258,14.14258l14.14258,14.14258l14.14258,-14.14258zM183.33203,250h16.66797v40h-16.66797c-7.352,0 -13.33203,-5.98003 -13.33203,-13.33203v-13.33594c0,-7.352 5.98003,-13.33203 13.33203,-13.33203zM220,250h201.31445l-6.66601,10h-144.64844c-5.522,0 -10,4.478 -10,10c0,5.522 4.478,10 10,10h144.64844l6.66601,10h-201.31445zM442.45703,254.3418l20.875,15.65625l-20.875,15.6582l-10.4375,-15.65625zM240,260c-5.52285,0 -10,4.47715 -10,10c0,5.52285 4.47715,10 10,10c5.52285,0 10,-4.47715 10,-10c0,-5.52285 -4.47715,-10 -10,-10zM60,270c-5.52285,0 -10,4.47715 -10,10c0,5.52285 4.47715,10 10,10c5.52285,0 10,-4.47715 10,-10c0,-5.52285 -4.47715,-10 -10,-10zM115,300c-23.032,0 -43.94162,9.22239 -59.26562,24.15039c-0.602,0.481 -1.06998,0.93898 -1.58398,1.58399c-32.228,33.083 -32.18,85.49629 0,118.52929c0.511,0.64 0.97198,1.09494 1.58398,1.58594c33.08,32.227 85.4963,32.18295 118.52929,0.00195c0.617,-0.492 1.08694,-0.96094 1.58594,-1.58594c14.929,-15.32499 24.15039,-36.23362 24.15039,-59.26562c0,-46.808 -38.136,-85 -85,-85zM270,310h70v80c0,5.522 4.478,10 10,10h30v40h-150v-40h30c5.522,0 10,-4.478 10,-10zM105,320.76953v9.23047c0,5.522 4.477,10 10,10c5.523,0 10,-4.478 10,-10v-9.22852c10.472,1.624 20.11836,5.76354 28.31836,11.76954l-6.49805,6.49804c-3.905,3.905 -3.905,10.23658 0,14.14258c3.906,3.905 10.23758,3.904 14.14258,0l6.49805,-6.49805c6.006,8.199 10.14458,17.84736 11.76758,28.31836h-9.22852c-5.523,0 -10,4.478 -10,10c0,5.522 4.477,10 10,10h9.22852c-1.624,10.472 -5.76158,20.11741 -11.76758,28.31641l-6.49805,-6.49805c-3.905,-3.903 -10.23758,-3.904 -14.14258,0c-3.905,3.905 -3.906,10.23658 0,14.14258l6.49805,6.49805c-8.2,6.006 -17.84636,10.14553 -28.31836,11.76953v-9.23047c0,-5.522 -4.477,-10 -10,-10c-5.523,0 -10,4.478 -10,10v9.22852c-10.472,-1.624 -20.11836,-5.76354 -28.31836,-11.76954l6.49805,-6.49804c3.905,-3.905 3.905,-10.23658 0,-14.14258c-3.905,-3.904 -10.23758,-3.904 -14.14258,0l-6.49805,6.49805c-6.006,-8.199 -10.14458,-17.84736 -11.76758,-28.31836h9.22852c5.523,0 10,-4.478 10,-10c0,-5.522 -4.477,-9.99805 -10,-9.99805h-9.22852c1.624,-10.472 5.76158,-20.11741 11.76758,-28.31641l6.49805,6.49805c3.906,3.904 10.23758,3.905 14.14258,0c3.905,-3.905 3.906,-10.23853 0,-14.14453l-6.49805,-6.49805c8.2,-6.006 17.84636,-10.14553 28.31836,-11.76953zM420,340c-5.52285,0 -10,4.47715 -10,10c0,5.52285 4.47715,10 10,10c5.52285,0 10,-4.47715 10,-10c0,-5.52285 -4.47715,-10 -10,-10zM99.80078,350c-0.98345,0.0198 -1.98077,0.1863 -2.96289,0.51367c-5.24,1.747 -8.07022,7.40944 -6.32422,12.64844l10,30c1.361,4.084 5.18233,6.83789 9.48633,6.83789h20c5.523,0 10,-4.478 10,-10c0,-5.522 -4.477,-10 -10,-10h-12.79297l-7.7207,-23.16211c-1.41944,-4.25669 -5.42393,-6.92367 -9.68555,-6.83789zM455,390c-19.299,0 -35,15.701 -35,35c0,19.299 15.701,35 35,35c19.299,0 35,-15.701 35,-35c0,-19.299 -15.701,-35 -35,-35zM455,410c8.271,0 15,6.729 15,15c0,8.271 -6.729,15 -15,15c-8.271,0 -15,-6.729 -15,-15c0,-8.271 6.729,-15 15,-15zM30,480c-5.523,0 -10,4.478 -10,10c0,5.522 4.477,10 10,10h460c5.522,0 10,-4.478 10,-10c0,-5.522 -4.478,-10 -10,-10z"></path></g></g></svg>