<svg xmlns="http://www.w3.org/2000/svg" xmlns:xlink="http://www.w3.org/1999/xlink" viewBox="0,0,256,256" width="48px" height="48px"><g fill="#fa5252" fill-rule="nonzero" stroke="none" stroke-width="1" stroke-linecap="butt" stroke-linejoin="miter" stroke-miterlimit="10" stroke-dasharray="" stroke-dashoffset="0" font-family="none" font-weight="none" font-size="none" text-anchor="none" style="mix-blend-mode: normal"><g transform="scale(5.33333,5.33333)"><path d="M16,5c-3.8484,0 -7,3.1516 -7,7c0,3.8484 3.1516,7 7,7c3.8484,0 7,-3.1516 7,-7c0,-1.23551 -0.32409,-2.40712 -0.89062,-3.41797c-0.25953,-0.47236 -0.75251,-0.7692 -1.29141,-0.7776c-0.5389,-0.0084 -1.04088,0.27294 -1.315,0.73699c-0.27412,0.46405 -0.27823,1.03948 -0.01078,1.50741c0.32347,0.57715 0.50781,1.23668 0.50781,1.95117c0,2.2276 -1.7724,4 -4,4c-2.2276,0 -4,-1.7724 -4,-4c0,-2.2276 1.7724,-4 4,-4c0.54095,0.00765 1.04412,-0.27656 1.31683,-0.74381c0.27271,-0.46725 0.27271,-1.04514 0,-1.51238c-0.27271,-0.46725 -0.77588,-0.75146 -1.31683,-0.74381zM32,5c-3.848,0 -7,3.152 -7,7c0,3.848 3.152,7 7,7c0.22643,0 0.45545,-0.01234 0.6875,-0.03711c0.54308,-0.0443 1.01943,-0.37958 1.24439,-0.87585c0.22495,-0.49628 0.16312,-1.07551 -0.16152,-1.51312c-0.32464,-0.43761 -0.86104,-0.66479 -1.40123,-0.59345c-0.12395,0.01323 -0.24557,0.01953 -0.36914,0.01953c-2.226,0 -4,-1.774 -4,-4c0,-2.226 1.774,-4 4,-4c1.44917,0 3.69163,1.15935 5.43164,2.45313c1.06657,0.79304 1.30957,1.09117 1.83203,1.58594c-0.82936,0.74568 -1.95198,1.68019 -3.32227,2.52149c-0.706,0.43363 -0.92679,1.35748 -0.49316,2.06348c0.43363,0.706 1.35748,0.92679 2.06348,0.49316c2.85001,-1.74978 5.06836,-4.07617 5.06836,-4.07617c0.55999,-0.58105 0.55999,-1.50098 0,-2.08203c0,0 -1.39893,-1.45588 -3.35742,-2.91211c-1.95849,-1.45623 -4.46583,-3.04687 -7.22266,-3.04687zM9.5,21c-1.91495,0 -3.5,1.58505 -3.5,3.5v9.5c0,5.50482 4.49518,10 10,10c2.31277,0 4.45881,-0.79207 6.1543,-2.11719c0.43315,-0.32636 0.65643,-0.86109 0.58398,-1.39857c-0.07246,-0.53748 -0.42937,-0.99399 -0.93349,-1.19399c-0.50411,-0.2 -1.07692,-0.11234 -1.49815,0.22928c-1.18851,0.92889 -2.67541,1.48047 -4.30664,1.48047c-3.88318,0 -7,-3.11682 -7,-7v-9.5c0,-0.29504 0.20495,-0.5 0.5,-0.5h9.75586c0.54095,0.00765 1.04412,-0.27656 1.31683,-0.74381c0.27271,-0.46725 0.27271,-1.04514 0,-1.51238c-0.27271,-0.46725 -0.77588,-0.75146 -1.31683,-0.74381zM25.5,21c-1.91495,0 -3.5,1.58505 -3.5,3.5v9.5c0,5.50482 4.49518,10 10,10c0.12569,0 0.25017,-0.00311 0.375,-0.00781c0.53883,-0.01567 1.02784,-0.31923 1.28093,-0.79519c0.25309,-0.47595 0.23136,-1.05111 -0.05693,-1.50661c-0.28829,-0.4555 -0.7988,-0.7213 -1.33728,-0.69626c-0.08717,0.00329 -0.17341,0.00586 -0.26172,0.00586c-3.88318,0 -7,-3.11682 -7,-7v-9.5c0,-0.29504 0.20496,-0.5 0.5,-0.5h0.71289c0.54095,0.00765 1.04412,-0.27656 1.31683,-0.74381c0.27271,-0.46725 0.27271,-1.04514 0,-1.51238c-0.27271,-0.46725 -0.77588,-0.75146 -1.31683,-0.74381zM31.08594,21c-0.54095,-0.00765 -1.04412,0.27656 -1.31683,0.74381c-0.27271,0.46725 -0.27271,1.04514 0,1.51238c0.27271,0.46725 0.77588,0.75146 1.31683,0.74381h7.41406c0.29505,0 0.5,0.20496 0.5,0.5v9.5c0,1.89701 -0.74653,3.59929 -1.96484,4.86133c-0.37888,0.3843 -0.52214,0.9425 -0.37516,1.46176c0.14698,0.51926 0.56154,0.91957 1.08562,1.04829c0.52409,0.12872 1.07693,-0.03398 1.44774,-0.42606c1.73568,-1.79796 2.80664,-4.25632 2.80664,-6.94531v-9.5c0,-1.91495 -1.58505,-3.5 -3.5,-3.5z"></path></g></g></svg>