<svg xmlns="http://www.w3.org/2000/svg" xmlns:xlink="http://www.w3.org/1999/xlink" viewBox="0,0,256,256" width="50px" height="50px" fill-rule="nonzero" fill="#449ffc"><g fill="#449ffc" fill-rule="nonzero" stroke="none" stroke-width="1" stroke-linecap="butt" stroke-linejoin="miter" stroke-miterlimit="10" stroke-dasharray="" stroke-dashoffset="0" font-family="none" font-weight="none" font-size="none" text-anchor="none" style="mix-blend-mode: normal"><g transform="scale(5.12,5.12)"><path d="M5,4c-0.55226,0.00006 -0.99994,0.44774 -1,1v10c0.00006,0.55226 0.44774,0.99994 1,1h40c0.55226,-0.00006 0.99994,-0.44774 1,-1v-10c-0.00006,-0.55226 -0.44774,-0.99994 -1,-1zM6,6h38v8h-38zM10,9c-0.55228,0 -1,0.44772 -1,1c0,0.55228 0.44772,1 1,1c0.55228,0 1,-0.44772 1,-1c0,-0.55228 -0.44772,-1 -1,-1zM14,9c-0.55228,0 -1,0.44772 -1,1c0,0.55228 0.44772,1 1,1c0.55228,0 1,-0.44772 1,-1c0,-0.55228 -0.44772,-1 -1,-1zM18,9c-0.55228,0 -1,0.44772 -1,1c0,0.55228 0.44772,1 1,1c0.55228,0 1,-0.44772 1,-1c0,-0.55228 -0.44772,-1 -1,-1zM4,19v26c0.00006,0.55226 0.44774,0.99994 1,1h40c0.55226,-0.00006 0.99994,-0.44774 1,-1v-26h-2v25h-38v-25zM10,19c-0.55226,0.00006 -0.99994,0.44774 -1,1v20c0.00006,0.55226 0.44774,0.99994 1,1h13c0.55226,-0.00006 0.99994,-0.44774 1,-1v-20c-0.00006,-0.55226 -0.44774,-0.99994 -1,-1zM27,19v2h14v-2zM11,21h11v18h-11zM27,24v2h14v-2zM27,29v2h14v-2zM27,34v2h14v-2zM27,39v2h14v-2z"></path></g></g></svg>