<svg xmlns="http://www.w3.org/2000/svg" xmlns:xlink="http://www.w3.org/1999/xlink" viewBox="0,0,256,256" width="50px" height="50px"><g fill="#fa5252" fill-rule="nonzero" stroke="none" stroke-width="1" stroke-linecap="butt" stroke-linejoin="miter" stroke-miterlimit="10" stroke-dasharray="" stroke-dashoffset="0" font-family="none" font-weight="none" font-size="none" text-anchor="none" style="mix-blend-mode: normal"><g transform="scale(5.12,5.12)"><path d="M29,0.8125c-7.19922,0 -14.57812,2.19531 -20.03125,9.15625c-5.45312,6.96094 -8.96875,18.50391 -8.96875,37.03125c-0.00391,0.29297 0.12109,0.57422 0.34766,0.76953c0.22266,0.19141 0.51563,0.27734 0.80859,0.23047c0,0 5.80469,-1 16.84375,-1c0.01953,0 0.04297,0 0.0625,0c1.94531,1.80859 4.23047,3 6.9375,3c2.71094,0 5.18359,-1.17187 7.3125,-3c0.01172,0 0.01953,0 0.03125,0c0.05078,0.00391 0.10547,0.00391 0.15625,0c10.83984,0 16.3125,1 16.3125,1c0.29688,0.05469 0.60156,-0.02344 0.83203,-0.21875c0.23047,-0.19141 0.35938,-0.48047 0.35547,-0.78125c0,-4.95703 -0.4375,-8.44922 -0.875,-10.71875c-0.31641,-1.63672 -0.58984,-2.46094 -0.75,-2.90625c0.39063,-0.71094 0.625,-1.51172 0.625,-2.375v-3c0,-1.61328 -0.80078,-3.05078 -2,-3.96875c-0.05469,-5.53125 -1.70703,-10.48437 -4.625,-14.09375c-2.80859,-3.47266 -6.85547,-5.61719 -11.59375,-5.84375l-0.8125,-2.59375c-0.13672,-0.41797 -0.53125,-0.69531 -0.96875,-0.6875zM28.28125,2.875l0.75,2.4375c0.13672,0.41797 0.53125,0.69531 0.96875,0.6875c4.50781,0 8.17969,1.93359 10.8125,5.1875c2.42578,3 3.93359,7.16016 4.15625,11.90625c-0.31641,-0.0625 -0.63672,-0.09375 -0.96875,-0.09375h-2c-0.03125,0 -0.0625,0 -0.09375,0c-0.51562,0.04688 -0.91016,0.48047 -0.90625,1v1.8125c-0.52734,-0.25391 -1.03906,-0.36719 -1.40625,-0.40625c-1.19922,-1.5 -6.19531,-7.80469 -8.59375,-13.90625c-0.19922,-0.39844 -0.5,-0.69531 -1,-0.59375c-0.39844,0 -0.80469,0.28906 -0.90625,0.6875c-1,3.60156 -9.30469,14.11328 -17.90625,14.3125c-0.5,-0.10156 -1.67969,-0.30078 -2.78125,0.5c-1,0.80078 -1.40625,1.90625 -1.40625,3.40625c0,2.30078 1.48828,4.1875 3.6875,4.6875c1.33203,3.48047 3.12109,7.47656 5.53125,10.53125c-8.39844,0.07813 -12.82422,0.64844 -14.15625,0.84375c0.15234,-17.53906 3.53516,-28.36328 8.46875,-34.65625c4.86719,-6.21094 11.20703,-8.20312 17.75,-8.34375zM30,14.40625c3,6.39844 7.98828,12.29297 8.1875,12.59375c0.19922,0.19922 0.51172,0.40625 0.8125,0.40625c0,0 1.42578,0.01953 2,1.21875v2.375c0,1.30078 -2.5,1.59375 -2.5,1.59375c-0.39844,0 -0.80469,0.41406 -0.90625,0.8125c-0.5,2.30078 -1.30469,4.49219 -2.40625,6.59375h2.21875c0.80078,-1.80078 1.50781,-3.69922 1.90625,-5.5c0.60938,-0.12891 1.16797,-0.35156 1.6875,-0.625v1.125c0,0.55078 0.44922,1 1,1h1c0,2.75391 -2.24609,5 -5,5h-8.1875c-0.41797,-1.15625 -1.51953,-2 -2.8125,-2h-2c-1.64453,0 -3,1.35547 -3,3c0,1.64453 1.35547,3 3,3h2c1.29297,0 2.39453,-0.84375 2.8125,-2h8.1875c3.84375,0 7,-3.15625 7,-7v-0.09375c0.67188,-0.14062 1.29688,-0.40234 1.84375,-0.78125c0.10547,0.41406 0.19141,0.90625 0.3125,1.53125c0.375,1.93359 0.74609,5.04688 0.8125,9.1875c-1.30469,-0.19922 -5.51562,-0.73828 -13.6875,-0.8125c0.28516,-0.33594 0.54688,-0.67187 0.8125,-1.03125h-2.59375c-2.10156,2.39844 -4.69922,4 -7.5,4c-4.80078,0 -8.88672,-4.8125 -12.6875,-14.8125c-0.10156,-0.39844 -0.51172,-0.59375 -0.8125,-0.59375c-1.39844,-0.10156 -2.5,-1.28125 -2.5,-2.78125c0,-0.60156 0.10156,-1.41797 0.5,-1.71875c0.39844,-0.30078 1.1875,-0.1875 1.1875,-0.1875h0.3125c8.30078,0 16.19922,-8.19922 19,-13.5zM43,25h1c1.65625,0 3,1.34375 3,3v3c0,0.59766 -0.16797,1.15625 -0.46875,1.625c-0.0625,0.06641 -0.11328,0.14063 -0.15625,0.21875c-0.55078,0.70703 -1.41406,1.15625 -2.375,1.15625h-1v-5.21875c0.07031,-0.19922 0.08203,-0.4375 0,-0.6875zM25,41h2c0.55469,0 1,0.44531 1,1c0,0.55469 -0.44531,1 -1,1h-2c-0.55469,0 -1,-0.44531 -1,-1c0,-0.55469 0.44531,-1 1,-1z"></path></g></g></svg>