<svg xmlns="http://www.w3.org/2000/svg" xmlns:xlink="http://www.w3.org/1999/xlink" viewBox="0,0,256,256" width="64px" height="64px"><g fill="#fa5252" fill-rule="nonzero" stroke="none" stroke-width="1" stroke-linecap="butt" stroke-linejoin="miter" stroke-miterlimit="10" stroke-dasharray="" stroke-dashoffset="0" font-family="none" font-weight="none" font-size="none" text-anchor="none" style="mix-blend-mode: normal"><g transform="scale(0.5,0.5)"><path d="M255.99414,36.39063c-10.88952,0 -19.86523,8.91761 -19.86523,19.79492v25.30664h-168.82618c-15.0516,0 -27.43164,12.30672 -27.43164,27.32617c0,15.021 12.38004,27.32812 27.43164,27.32812h19.5957v200.99414c0.00028,2.76131 2.23869,4.99972 5,5h131.48047l-124.70703,123.4668h-58.08789c-1.80318,-0.0255 -3.48041,0.92188 -4.38944,2.47936c-0.90903,1.55749 -0.90903,3.48378 0,5.04127c0.90903,1.55749 2.58626,2.50487 4.38944,2.47936h59.26367c0.53358,0.08711 1.07775,0.08711 1.61132,0h155.65235c0.53677,0.08817 1.08432,0.08817 1.62109,0h146.54883c0.53613,0.08796 1.08301,0.08796 1.61914,0h64.51563c1.80318,0.0255 3.48041,-0.92188 4.38944,-2.47936c0.90903,-1.55749 0.90903,-3.48378 0,-5.04127c-0.90903,-1.55749 -2.58626,-2.50487 -4.38944,-2.47936h-63.2461l-116.26953,-123.4668h132.20313c2.76131,-0.00028 4.99972,-2.23869 5,-5v-200.99414h15.59375c15.04614,0 27.42382,-12.30712 27.42382,-27.32812c0,-15.01945 -12.37768,-27.32617 -27.42382,-27.32617h-168.83204v-25.30664c0,-10.87706 -8.97659,-19.79492 -19.86718,-19.79492zM255.99414,46.39063h0.00391c5.4594,0 9.86718,4.40198 9.86718,9.79492v25.30664h-19.73632v-25.30664c0,-5.39469 4.40675,-9.79492 9.86523,-9.79492zM67.30273,91.49219h173.76758c0.01953,0.00077 0.03906,0.00142 0.0586,0.00195h29.73632c0.01303,-0.0006 0.02605,-0.00125 0.03907,-0.00195h173.79297c9.61386,0 17.42382,7.78762 17.42382,17.32617c0,9.54099 -7.80996,17.32812 -17.42382,17.32812h-20.59375h-332.20508h-24.5957c-9.6224,0 -17.43164,-7.78713 -17.43164,-17.32812c0,-9.53855 7.80924,-17.32617 17.43164,-17.32617zM96.89844,136.14648h322.20508v195.99414h-138.13868c-0.45165,-0.06206 -0.90967,-0.06206 -1.36132,0h-43.36524c-0.44266,-0.05958 -0.89132,-0.05958 -1.33398,0h-138.00586zM118.83594,157.9707v17.83985h17.92383v-17.83985zM154.73828,157.9707v17.83985h17.92578v-17.83985zM190.64062,157.9707v17.83985h17.92579v-17.83985zM379.05664,179.67578c-0.24619,0.00532 -0.49165,0.02882 -0.73437,0.07031h-26.11719c-1.80318,-0.0255 -3.48041,0.92188 -4.38944,2.47936c-0.90903,1.55749 -0.90903,3.48378 0,5.04127c0.90903,1.55749 2.58626,2.50487 4.38944,2.47936h16.2168l-34.16993,40.81055l-41.04297,-49.01953c-0.96902,-1.15715 -2.40885,-1.81471 -3.91794,-1.78931c-1.50909,0.0254 -2.92597,0.73106 -3.85549,1.92017l-59.98438,76.75391l-49.99609,-33.17579c-1.80772,-1.19881 -4.18218,-1.09547 -5.87891,0.25586l-44.87695,35.73243c-1.43741,1.09951 -2.16859,2.88985 -1.91182,4.68126c0.25677,1.79141 1.46141,3.30429 3.14979,3.95576c1.68839,0.65148 3.59702,0.33987 4.99053,-0.81477l42.03125,-33.46484l50.81836,33.7207c2.17579,1.44276 5.09531,0.96893 6.70313,-1.08789l59.02734,-75.53125l40.91016,48.86133c0.9501,1.13471 2.35403,1.79027 3.83398,1.79027c1.47995,0 2.88388,-0.65556 3.83398,-1.79027l36.04492,-43.04883v13.04102c-0.0255,1.80318 0.92188,3.48041 2.47936,4.38944c1.55749,0.90903 3.48378,0.90903 5.04127,0c1.55749,-0.90903 2.50487,-2.58626 2.47936,-4.38944v-25.98243c0.15141,-0.91523 0.04524,-1.85454 -0.30664,-2.71289c-0.00956,-0.02547 -0.01933,-0.05086 -0.0293,-0.07617c-0.02504,-0.05516 -0.05109,-0.10985 -0.07812,-0.16406c-0.58255,-1.27082 -1.67048,-2.23976 -3,-2.67188c-0.04921,-0.0177 -0.0987,-0.03463 -0.14844,-0.05078c-0.49004,-0.14792 -0.99989,-0.21972 -1.51172,-0.21289zM289.375,220.47852c-4.959,0 -8.97656,3.99859 -8.97656,8.93359c0,4.933 4.01756,8.93359 8.97656,8.93359c4.96,0 8.97852,-4.00059 8.97852,-8.93359c0,-4.935 -4.01852,-8.93359 -8.97852,-8.93359zM172.69141,256.2168c-4.958,0 -8.97557,3.99568 -8.97657,8.92968c0,4.937 4.01857,8.93555 8.97657,8.93555c4.953,0 8.9707,-3.99855 8.9707,-8.93555c0,-4.934 -4.0177,-8.92968 -8.9707,-8.92968zM140.1582,304.40234c-1.80318,-0.0255 -3.48041,0.92188 -4.38944,2.47936c-0.90903,1.55749 -0.90903,3.48378 0,5.04127c0.90903,1.55749 2.58626,2.50487 4.38944,2.47936h231.88672c1.80318,0.0255 3.48041,-0.92188 4.38944,-2.47936c0.90903,-1.55749 0.90903,-3.48378 0,-5.04127c-0.90903,-1.55749 -2.58626,-2.50487 -4.38944,-2.47936zM240.5332,342.14258h34.79102v34.29883c0,9.35751 -7.54643,16.98925 -16.92774,17.24218c-0.30858,-0.02875 -0.61915,-0.02875 -0.92773,0c-9.38293,-0.24986 -16.93555,-7.88297 -16.93555,-17.24218zM230.5332,349.12891v27.3125c0,13.29214 9.72405,24.41491 22.39649,26.7832v62.38281h-140.04492zM285.32422,349.74414l109.10937,115.86328h-131.5039v-62.38281c12.672,-2.36902 22.39453,-13.4919 22.39453,-26.7832z"></path></g></g></svg>